<svg id="f3fbf384-425f-4e2d-9d16-ee94a2aacbee" data-name="Calque 1" xmlns="http://www.w3.org/2000/svg" viewBox="0 0 420.49855 85.8824"><path d="M116.31219,72.32649a21.04645,21.04645,0,0,1-7.3247-3.94384l3.23584-8.2251a22.07663,22.07663,0,0,0,13.59082,4.92139q4.05981,0,6.001-1.38184a4.29772,4.29772,0,0,0,1.94141-3.67432,3.73674,3.73674,0,0,0-1.147-2.79834,8.42715,8.42715,0,0,0-2.9419-1.78662q-1.79517-.6731-4.85351-1.48291a60.552,60.552,0,0,1-7.70752-2.562,12.65186,12.65186,0,0,1-5.14795-4.11279,12.18072,12.18072,0,0,1-2.14746-7.55078,14.54139,14.54139,0,0,1,1.9414-7.44971,13.547,13.547,0,0,1,5.854-5.29248,21.23089,21.23089,0,0,1,9.56054-1.95508,27.87009,27.87009,0,0,1,7.70752,1.07861,21.28343,21.28343,0,0,1,6.58936,3.10108l-2.9419,8.29248a20.82443,20.82443,0,0,0-11.41357-3.708q-4.002,0-5.91309,1.4834a4.70892,4.70892,0,0,0-1.91211,3.91016,3.844,3.844,0,0,0,2.20655,3.60693,31.41237,31.41237,0,0,0,6.73632,2.32617,60.91856,60.91856,0,0,1,7.70752,2.562,12.87081,12.87081,0,0,1,5.14795,4.04493,11.89887,11.89887,0,0,1,2.14746,7.48388A14.24829,14.24829,0,0,1,141.258,66.596a13.71349,13.71349,0,0,1-5.91259,5.29248,21.43013,21.43013,0,0,1-9.59034,1.95507A29.71386,29.71386,0,0,1,116.31219,72.32649Z" transform="translate(-11.87059 -12.52092)"/><path d="M177.08758,27.931a14.79662,14.79662,0,0,1,6.207,5.93261,18.17468,18.17468,0,0,1,2.17676,9.102,18.2191,18.2191,0,0,1-2.17676,9.06788,14.52283,14.52283,0,0,1-6.207,5.93261,20.64716,20.64716,0,0,1-9.50195,2.05664h-8.29541V73.0345H149.759V25.84065h17.82666A20.38781,20.38781,0,0,1,177.08758,27.931Zm-3.50049,21.06836a7.92479,7.92479,0,0,0,2.23536-6.0337,8.01686,8.01686,0,0,0-2.23536-6.10156q-2.23681-2.124-6.53076-2.124h-7.76611v16.3833h7.76611Q171.35053,51.12337,173.58709,48.99935Z" transform="translate(-11.87059 -12.52092)"/><path d="M224.12567,64.26985V73.0345H192.23749V25.84065H223.361V34.6053H201.70965v10.248h19.12159V53.348H201.70965V64.26985Z" transform="translate(-11.87059 -12.52092)"/><path d="M239.92254,70.70833a21.91522,21.91522,0,0,1-8.00146-8.69678,26.6902,26.6902,0,0,1-2.9126-12.57373,26.69166,26.69166,0,0,1,2.9126-12.57373,21.91656,21.91656,0,0,1,8.00146-8.69726,22.60437,22.60437,0,0,1,21.12159-.97754,19.86015,19.86015,0,0,1,7.26611,6.20263l-6.11914,6.47217q-4.17774-5.52759-10.35449-5.52832a12.38246,12.38246,0,0,0-6.8252,1.92139,12.93127,12.93127,0,0,0-4.67725,5.35986,17.62121,17.62121,0,0,0-1.67675,7.8208,17.61611,17.61611,0,0,0,1.67675,7.82032,12.93127,12.93127,0,0,0,4.67725,5.35986,12.37876,12.37876,0,0,0,6.8252,1.92187q6.17724,0,10.35449-5.59619l6.11914,6.47266a19.5542,19.5542,0,0,1-7.29541,6.26953,21.57155,21.57155,0,0,1-9.708,2.15771A21.26434,21.26434,0,0,1,239.92254,70.70833Z" transform="translate(-11.87059 -12.52092)"/><path d="M284.842,34.74007H271.66327V25.84065h35.88916v8.89942h-13.1792V73.0345H284.842Z" transform="translate(-11.87059 -12.52092)"/><path d="M338.91083,73.0345l-7.94288-13.147h-8.76611v13.147h-9.53125V25.84065h17.82666A20.38781,20.38781,0,0,1,339.9992,27.931a14.79664,14.79664,0,0,1,6.207,5.93261,18.17478,18.17478,0,0,1,2.17675,9.102,17.78817,17.78817,0,0,1-2.20605,9.06788,14.5693,14.5693,0,0,1-6.26611,5.83154l9.2373,15.16943Zm-2.41211-36.17041q-2.23683-2.124-6.53077-2.124h-7.76611V51.19075h7.76611q4.2942,0,6.53077-2.15771a8.03775,8.03775,0,0,0,2.23535-6.06739A8.01689,8.01689,0,0,0,336.49872,36.86409Z" transform="translate(-11.87059 -12.52092)"/><path d="M383.03583,62.92171h-19.1211l-3.648,10.11279h-9.76611l18.356-47.19385h9.41357L396.68573,73.0345h-10.002Zm-3.00049-8.293-6.53076-18.06836L366.9743,54.62874Z" transform="translate(-11.87059 -12.52092)"/><path d="M400.98016,25.84065h9.53125V64.13509h20.65088V73.0345H400.98016Z" transform="translate(-11.87059 -12.52092)"/><path d="M389.584,83.08789h-5.69824V81.56152h13.11133v1.52637h-5.69922V98.25977H389.584Z" transform="translate(-11.87059 -12.52092)"/><path d="M416.57031,81.56152V98.25977h-1.64453V84.90137l-6.37012,11.23535h-.81054L401.375,84.97266V98.25977h-1.64551V81.56152h1.41309l7.043,12.38086,6.97265-12.38086Z" transform="translate(-11.87059 -12.52092)"/><path d="M422.85938,97.80664a6.32674,6.32674,0,0,1-2.55958-1.57422l.67188-1.36035a6.3973,6.3973,0,0,0,2.33984,1.46777,8.3217,8.3217,0,0,0,3.01172.56055,5.37993,5.37993,0,0,0,3.26563-.82324,2.55791,2.55791,0,0,0,1.08886-2.13477,2.17319,2.17319,0,0,0-.59082-1.59863,3.95758,3.95758,0,0,0-1.44726-.918,23.02029,23.02029,0,0,0-2.38672-.7041,24.63241,24.63241,0,0,1-2.918-.918,4.80039,4.80039,0,0,1-1.86523-1.34863,3.64955,3.64955,0,0,1-.77637-2.457,4.25329,4.25329,0,0,1,.64941-2.30176,4.47081,4.47081,0,0,1,1.99219-1.6582,7.94953,7.94953,0,0,1,3.335-.62012,9.55329,9.55329,0,0,1,2.72266.39355,7.709,7.709,0,0,1,2.30469,1.08594l-.57911,1.40723a8.04522,8.04522,0,0,0-4.44824-1.38379,5.12554,5.12554,0,0,0-3.208.84668,2.65483,2.65483,0,0,0-1.07714,2.18262,2.21391,2.21391,0,0,0,.59082,1.61035,3.84255,3.84255,0,0,0,1.48242.93066q.89208.32226,2.39746.7041a23.37915,23.37915,0,0,1,2.88379.89453,4.73287,4.73287,0,0,1,1.86523,1.33594,3.60118,3.60118,0,0,1,.76465,2.4209,4.20459,4.20459,0,0,1-.66016,2.30176,4.46142,4.46142,0,0,1-2.02734,1.64648,8.25481,8.25481,0,0,1-3.3584.6084A10.15067,10.15067,0,0,1,422.85938,97.80664Z" transform="translate(-11.87059 -12.52092)"/><polygon points="40.511 0 0 20.685 0 35.767 25.862 49.591 0 62.442 0 77.118 40.511 56.988 40.511 42.312 14.434 28.39 40.509 15.064 40.511 0" fill="#0a0a0a"/><polyline points="83.718 21.137 43.231 0 43.231 15.413 68.948 28.862 43.231 42.312 43.231 77.34 55.741 77.34 55.741 51.211 83.739 36.596" fill="#0a0a0a"/><path d="M116.31219,72.32649a21.04645,21.04645,0,0,1-7.3247-3.94384l3.23584-8.2251a22.07663,22.07663,0,0,0,13.59082,4.92139q4.05981,0,6.001-1.38184a4.29772,4.29772,0,0,0,1.94141-3.67432,3.73674,3.73674,0,0,0-1.147-2.79834,8.42715,8.42715,0,0,0-2.9419-1.78662q-1.79517-.6731-4.85351-1.48291a60.552,60.552,0,0,1-7.70752-2.562,12.65186,12.65186,0,0,1-5.14795-4.11279,12.18072,12.18072,0,0,1-2.14746-7.55078,14.54139,14.54139,0,0,1,1.9414-7.44971,13.547,13.547,0,0,1,5.854-5.29248,21.23089,21.23089,0,0,1,9.56054-1.95508,27.87009,27.87009,0,0,1,7.70752,1.07861,21.28343,21.28343,0,0,1,6.58936,3.10108l-2.9419,8.29248a20.82443,20.82443,0,0,0-11.41357-3.708q-4.002,0-5.91309,1.4834a4.70892,4.70892,0,0,0-1.91211,3.91016,3.844,3.844,0,0,0,2.20655,3.60693,31.41237,31.41237,0,0,0,6.73632,2.32617,60.91856,60.91856,0,0,1,7.70752,2.562,12.87081,12.87081,0,0,1,5.14795,4.04493,11.89887,11.89887,0,0,1,2.14746,7.48388A14.24829,14.24829,0,0,1,141.258,66.596a13.71349,13.71349,0,0,1-5.91259,5.29248,21.43013,21.43013,0,0,1-9.59034,1.95507A29.71386,29.71386,0,0,1,116.31219,72.32649Z" transform="translate(-11.87059 -12.52092)"/><path d="M177.08758,27.931a14.79662,14.79662,0,0,1,6.207,5.93261,18.17468,18.17468,0,0,1,2.17676,9.102,18.2191,18.2191,0,0,1-2.17676,9.06788,14.52283,14.52283,0,0,1-6.207,5.93261,20.64716,20.64716,0,0,1-9.50195,2.05664h-8.29541V73.0345H149.759V25.84065h17.82666A20.38781,20.38781,0,0,1,177.08758,27.931Zm-3.50049,21.06836a7.92479,7.92479,0,0,0,2.23536-6.0337,8.01686,8.01686,0,0,0-2.23536-6.10156q-2.23681-2.124-6.53076-2.124h-7.76611v16.3833h7.76611Q171.35053,51.12337,173.58709,48.99935Z" transform="translate(-11.87059 -12.52092)"/><path d="M224.12567,64.26985V73.0345H192.23749V25.84065H223.361V34.6053H201.70965v10.248h19.12159V53.348H201.70965V64.26985Z" transform="translate(-11.87059 -12.52092)"/><path d="M239.92254,70.70833a21.91522,21.91522,0,0,1-8.00146-8.69678,26.6902,26.6902,0,0,1-2.9126-12.57373,26.69166,26.69166,0,0,1,2.9126-12.57373,21.91656,21.91656,0,0,1,8.00146-8.69726,22.60437,22.60437,0,0,1,21.12159-.97754,19.86015,19.86015,0,0,1,7.26611,6.20263l-6.11914,6.47217q-4.17774-5.52759-10.35449-5.52832a12.38246,12.38246,0,0,0-6.8252,1.92139,12.93127,12.93127,0,0,0-4.67725,5.35986,17.62121,17.62121,0,0,0-1.67675,7.8208,17.61611,17.61611,0,0,0,1.67675,7.82032,12.93127,12.93127,0,0,0,4.67725,5.35986,12.37876,12.37876,0,0,0,6.8252,1.92187q6.17724,0,10.35449-5.59619l6.11914,6.47266a19.5542,19.5542,0,0,1-7.29541,6.26953,21.57155,21.57155,0,0,1-9.708,2.15771A21.26434,21.26434,0,0,1,239.92254,70.70833Z" transform="translate(-11.87059 -12.52092)"/><path d="M284.842,34.74007H271.66327V25.84065h35.88916v8.89942h-13.1792V73.0345H284.842Z" transform="translate(-11.87059 -12.52092)"/><path d="M338.91083,73.0345l-7.94288-13.147h-8.76611v13.147h-9.53125V25.84065h17.82666A20.38781,20.38781,0,0,1,339.9992,27.931a14.79664,14.79664,0,0,1,6.207,5.93261,18.17478,18.17478,0,0,1,2.17675,9.102,17.78817,17.78817,0,0,1-2.20605,9.06788,14.5693,14.5693,0,0,1-6.26611,5.83154l9.2373,15.16943Zm-2.41211-36.17041q-2.23683-2.124-6.53077-2.124h-7.76611V51.19075h7.76611q4.2942,0,6.53077-2.15771a8.03775,8.03775,0,0,0,2.23535-6.06739A8.01689,8.01689,0,0,0,336.49872,36.86409Z" transform="translate(-11.87059 -12.52092)"/><path d="M383.03583,62.92171h-19.1211l-3.648,10.11279h-9.76611l18.356-47.19385h9.41357L396.68573,73.0345h-10.002Zm-3.00049-8.293-6.53076-18.06836L366.9743,54.62874Z" transform="translate(-11.87059 -12.52092)"/><path d="M400.98016,25.84065h9.53125V64.13509h20.65088V73.0345H400.98016Z" transform="translate(-11.87059 -12.52092)"/><path d="M389.584,83.08789h-5.69824V81.56152h13.11133v1.52637h-5.69922V98.25977H389.584Z" transform="translate(-11.87059 -12.52092)"/><path d="M416.57031,81.56152V98.25977h-1.64453V84.90137l-6.37012,11.23535h-.81054L401.375,84.97266V98.25977h-1.64551V81.56152h1.41309l7.043,12.38086,6.97265-12.38086Z" transform="translate(-11.87059 -12.52092)"/><path d="M422.85938,97.80664a6.32674,6.32674,0,0,1-2.55958-1.57422l.67188-1.36035a6.3973,6.3973,0,0,0,2.33984,1.46777,8.3217,8.3217,0,0,0,3.01172.56055,5.37993,5.37993,0,0,0,3.26563-.82324,2.55791,2.55791,0,0,0,1.08886-2.13477,2.17319,2.17319,0,0,0-.59082-1.59863,3.95758,3.95758,0,0,0-1.44726-.918,23.02029,23.02029,0,0,0-2.38672-.7041,24.63241,24.63241,0,0,1-2.918-.918,4.80039,4.80039,0,0,1-1.86523-1.34863,3.64955,3.64955,0,0,1-.77637-2.457,4.25329,4.25329,0,0,1,.64941-2.30176,4.47081,4.47081,0,0,1,1.99219-1.6582,7.94953,7.94953,0,0,1,3.335-.62012,9.55329,9.55329,0,0,1,2.72266.39355,7.709,7.709,0,0,1,2.30469,1.08594l-.57911,1.40723a8.04522,8.04522,0,0,0-4.44824-1.38379,5.12554,5.12554,0,0,0-3.208.84668,2.65483,2.65483,0,0,0-1.07714,2.18262,2.21391,2.21391,0,0,0,.59082,1.61035,3.84255,3.84255,0,0,0,1.48242.93066q.89208.32226,2.39746.7041a23.37915,23.37915,0,0,1,2.88379.89453,4.73287,4.73287,0,0,1,1.86523,1.33594,3.60118,3.60118,0,0,1,.76465,2.4209,4.20459,4.20459,0,0,1-.66016,2.30176,4.46142,4.46142,0,0,1-2.02734,1.64648,8.25481,8.25481,0,0,1-3.3584.6084A10.15067,10.15067,0,0,1,422.85938,97.80664Z" transform="translate(-11.87059 -12.52092)"/><polygon points="40.511 0 0 20.685 0 35.767 25.862 49.591 0 62.442 0 77.118 40.511 56.988 40.511 42.312 14.434 28.39 40.509 15.064 40.511 0" fill="#0a0a0a"/><polyline points="83.718 21.137 43.231 0 43.231 15.413 68.948 28.862 43.231 42.312 43.231 77.34 55.741 77.34 55.741 51.211 83.739 36.596" fill="#0a0a0a"/></svg>